<svg xmlns="http://www.w3.org/2000/svg" version="1.1" focusable="false" class="" width="64px" height="64px" viewBox="0 0 64 64"><title></title><path d="M10.376 31.654c-5.629-5.629-5.629-14.756 0-20.385A14.371 14.371 0 0 1 20.57 7.045c3.689 0 7.378 1.408 10.194 4.224 5.629 5.629 5.629 14.756 0 20.385a14.371 14.371 0 0 1-10.194 4.224 14.371 14.371 0 0 1-10.194-4.224zm21.473 10.145l20.687 20.687a5.167 5.167 0 0 0 3.666 1.513 5.167 5.167 0 0 0 3.666-1.513l1.26-1.26c2.017-2.017 2.017-5.317 0-7.332l-20.585-20.59c-.988 1.638-2.161 3.195-3.574 4.608a24.294 24.294 0 0 1-5.12 3.889v-.003zm3.203-5.788c8.018-8.02 8.018-21.02 0-29.038A20.47 20.47 0 0 0 20.534.96a20.469 20.469 0 0 0-14.52 6.013c-8.018 8.018-8.018 21.018 0 29.038a20.47 20.47 0 0 0 14.52 6.013 20.47 20.47 0 0 0 14.518-6.013z" fill="#FFF"></path></svg>